PathFileType	4	(X/Y/Z)	 s04c0302.trc
DataRate	CameraRate	NumFrames	NumMarkers	Units	OrigDataRate	OrigDataStartFrame	OrigNumFrames
200	200	5	50	mm	200	501	2000
Frame#	Time	racr			lacr			c7			jug			rlel			rdr			llel			ldr			s2			lic			ric			lasi			rasi			rpsi			lpsi			rgt			lgt			rth1			rth2			rth3			rth4			rlfc			rmfc			rsh1			rsh2			rsh3			rsh4			rlmal			rmmal			rcal			rtoe			rmt5			lth1			lth2			lth4			lth3			llfc			lmfc			lsh1			lsh2			lsh3			lsh4			llmal			lmmal			lcal			ltoe			lmt5			SBIKE			LBIKE			RBIKE			
		X1	Y1	Z1	X2	Y2	Z2	X3	Y3	Z3	X4	Y4	Z4	X5	Y5	Z5	X6	Y6	Z6	X7	Y7	Z7	X8	Y8	Z8	X9	Y9	Z9	X10	Y10	Z10	X11	Y11	Z11	X12	Y12	Z12	X13	Y13	Z13	X14	Y14	Z14	X15	Y15	Z15	X16	Y16	Z16	X17	Y17	Z17	X18	Y18	Z18	X19	Y19	Z19	X20	Y20	Z20	X21	Y21	Z21	X22	Y22	Z22	X23	Y23	Z23	X24	Y24	Z24	X25	Y25	Z25	X26	Y26	Z26	X27	Y27	Z27	X28	Y28	Z28	X29	Y29	Z29	X30	Y30	Z30	X31	Y31	Z31	X32	Y32	Z32	X33	Y33	Z33	X34	Y34	Z34	X35	Y35	Z35	X36	Y36	Z36	X37	Y37	Z37	X38	Y38	Z38	X39	Y39	Z39	X40	Y40	Z40	X41	Y41	Z41	X42	Y42	Z42	X43	Y43	Z43	X44	Y44	Z44	X45	Y45	Z45	X46	Y46	Z46	X47	Y47	Z47	X48	Y48	Z48	X49	Y49	Z49	X50	Y50	Z50	
501	2.5050	817.041989	1380.205895	-63.466791	834.451098	1393.519095	-376.523335	832.002738	1462.031041	-225.521874	792.291924	1312.214076	-233.719593	588.351107	1156.958700	38.871308	710.539037	923.642871	-74.198904	658.681902	1180.138360	-508.619092	714.974851	907.593749	-439.862460	248.834149	1323.435012	-301.040851	427.305501	1263.589242	-423.440909	368.501926	1335.587581	-120.357254	441.621668	1212.704673	-364.963166	411.586482	1270.765380	-152.478093	277.470107	1369.632383	-262.514037	294.071543	1351.337636	-334.792015	324.982646	1292.731474	-97.629024	339.158002	1180.378761	-443.087373	421.875643	1157.054753	-74.103370	489.813497	1101.040653	-79.932006	522.862307	1022.630832	-81.774215	517.030761	1122.579177	-97.811938	593.333987	896.094951	-104.531320	577.565546	882.950511	-218.599373	501.802760	812.785340	-86.131676	452.864551	737.228555	-103.988053	374.575335	702.998647	-112.424252	476.911752	717.047866	-126.180088	270.995261	595.221306	-123.577328	294.252336	593.299145	-208.864194	194.262160	596.907315	-164.450582	458.280699	456.694258	-143.402429	386.435935	464.437069	-89.805408	334.226657	1096.612435	-455.097266	356.662023	1012.772655	-456.691452	391.437390	1012.940842	-446.444105	333.649025	926.948536	-461.965517	314.098546	755.589431	-449.950185	332.337891	719.433608	-341.351166	262.876086	633.228209	-474.900847	250.800384	548.286898	-457.698053	197.455780	477.272844	-457.690406	278.353668	539.333823	-430.534178	140.526397	332.427620	-454.845696	141.397174	332.549208	-367.772970	70.586432	361.749430	-410.902017	273.251905	130.545928	-402.287358	200.887271	157.571933	-466.527786	-176.392187	936.215825	-278.081249	-3.278003	86.739255	-484.593828	-14.976855	80.652974	-84.027744	
502	2.5100	817.135222	1378.409911	-62.755976	833.964756	1392.527035	-375.947622	832.322579	1460.616081	-224.988807	791.673660	1311.166015	-233.387196	585.229191	1157.476655	37.976822	710.472985	925.329921	-73.817841	658.295680	1179.655557	-508.664021	714.905737	907.431745	-440.110594	248.735554	1325.788519	-301.087775	427.115382	1265.182239	-422.977439	367.707834	1337.010785	-120.007541	441.044808	1214.203169	-364.622859	411.339143	1271.343274	-152.417101	277.434178	1371.851913	-262.581108	294.315581	1353.537204	-334.814129	324.157987	1294.548992	-97.800197	339.701347	1182.022513	-443.264010	420.976843	1158.569636	-75.084513	489.353389	1102.849662	-82.323590	522.063790	1024.316352	-83.890791	515.947393	1124.376596	-99.426912	592.759618	897.638721	-107.237130	576.002235	884.210714	-221.175381	502.178361	812.730701	-88.175542	454.678805	736.273557	-105.032598	376.556917	700.877413	-113.487827	478.657580	716.368948	-127.591865	274.394077	591.381524	-123.726991	297.447568	589.452955	-209.032006	197.629992	592.420418	-164.137141	462.781948	454.101633	-143.305861	390.894360	461.512078	-89.817112	335.855796	1097.952668	-455.116221	359.102521	1014.408601	-456.153027	393.496205	1014.971200	-444.836431	336.893964	928.305123	-461.935638	316.230020	757.099820	-449.966790	333.817342	720.902843	-341.599862	263.457719	635.255351	-474.947466	250.351336	550.581667	-457.416833	196.139093	480.170299	-457.659069	277.509989	541.417731	-430.032866	137.628166	335.849233	-454.633320	138.986163	335.377485	-367.436806	67.800838	365.644650	-410.819504	268.693277	132.616722	-402.348227	196.589067	160.541277	-466.536784	-176.195596	935.988856	-277.861842	-3.279014	86.768180	-484.587733	-14.964276	80.652876	-84.033308	
503	2.5150	817.072994	1376.580612	-61.960963	833.458623	1391.348816	-375.393951	832.355091	1459.211791	-223.883357	791.154149	1310.040509	-232.689619	581.997182	1157.847388	36.987137	710.256404	926.750943	-73.720007	657.707605	1179.200714	-508.820131	714.916429	907.307343	-440.411026	248.495222	1328.221413	-301.062450	426.788142	1266.758212	-422.567100	366.919563	1338.396790	-119.685246	440.488949	1215.547937	-364.395325	411.130395	1271.771084	-152.332820	277.223990	1373.932580	-262.683885	294.445645	1355.550248	-334.826998	323.467021	1296.330895	-97.853715	340.277857	1183.570621	-443.459327	420.250901	1160.021611	-75.949959	488.447799	1104.396126	-83.710075	521.345249	1025.787284	-85.891189	515.210908	1125.905581	-101.504587	592.241463	898.931450	-109.766838	574.224263	885.665255	-223.623886	502.591132	812.512273	-90.131770	456.014907	735.264451	-106.288195	378.575891	698.605255	-114.440115	480.360061	715.531584	-128.941004	277.709888	587.654139	-123.709760	301.256288	585.423179	-209.101704	200.881954	587.842330	-163.853459	467.103521	451.401424	-143.161386	395.281614	458.429411	-89.797918	337.578976	1099.310133	-455.244909	361.517299	1015.903480	-455.467101	395.524672	1016.700049	-443.038794	340.184130	929.590855	-461.803558	317.954048	758.657787	-449.944021	335.033960	722.508551	-341.675648	264.006052	637.302205	-474.612392	250.139456	552.776563	-457.250605	195.236874	483.117095	-457.944753	276.901254	543.629804	-429.705449	134.980293	339.243682	-454.713981	136.719901	338.398168	-367.467293	65.497138	369.783010	-411.074729	264.084035	134.651998	-402.219680	192.417001	163.420803	-466.436861	-176.221007	936.046829	-277.726137	-3.257807	86.816505	-484.633620	-14.961695	80.648485	-84.015015	
504	2.5200	816.815444	1374.701393	-61.168784	832.819860	1390.205661	-374.799555	832.543348	1457.634046	-223.663369	790.199717	1308.888678	-232.492568	578.845537	1158.111412	35.755237	709.969673	927.818683	-73.772946	656.962393	1178.870167	-509.125492	714.818064	907.268718	-440.680820	248.263643	1330.207084	-301.357543	426.326779	1268.273533	-422.206862	366.213168	1339.472672	-119.335209	439.956838	1216.881692	-364.278445	410.959182	1272.053127	-152.226026	277.022360	1375.772605	-262.838127	294.362453	1357.591902	-334.636636	322.729381	1297.808986	-97.956832	340.890125	1185.059090	-443.692115	419.613295	1161.381678	-76.813327	487.702211	1105.817220	-85.010786	520.606019	1027.237673	-87.593719	514.313963	1127.287465	-102.961624	591.751897	899.884956	-112.114786	572.685933	886.423513	-225.950828	502.943919	812.073937	-91.898285	457.381034	734.122275	-107.553541	380.479002	696.332273	-115.368433	481.951517	714.610241	-130.216896	280.860159	584.073397	-123.622130	303.864600	581.639907	-209.125672	204.171697	583.040231	-163.518167	471.566509	448.416936	-143.449874	399.627116	455.105982	-89.772706	339.367526	1100.486541	-455.389508	363.953283	1017.292151	-454.718791	397.583141	1018.345482	-441.298563	343.452591	930.777257	-461.581688	319.327808	760.324513	-450.002721	335.719982	724.344950	-341.261650	264.808136	639.507415	-474.353612	250.148765	555.013379	-457.224836	194.709190	485.717994	-458.239889	276.606915	545.551462	-429.334960	132.526919	342.703430	-454.870123	134.744633	341.553690	-367.686456	63.232512	373.958319	-411.504155	259.579082	136.822104	-402.076758	188.260352	166.384348	-466.398300	-176.226082	936.033820	-277.700255	-3.242977	86.729467	-484.580346	-14.953674	80.632372	-84.000350	
505	2.5250	816.422513	1372.798138	-60.340739	832.227779	1389.082254	-374.226385	832.720848	1456.110407	-223.705940	789.213037	1307.805206	-232.525093	575.923949	1158.296580	34.476108	709.604556	928.709422	-73.915126	656.137360	1178.576134	-509.463027	714.716483	907.358522	-440.997829	248.272603	1331.582380	-300.788765	425.849015	1269.721243	-421.957385	365.585677	1340.395133	-118.874866	439.323071	1218.000115	-364.211281	410.824453	1272.193719	-152.097495	276.714150	1377.386148	-262.881960	294.092983	1359.646360	-335.031580	322.119115	1299.050665	-97.920368	341.557891	1186.479907	-443.969117	419.111202	1162.613398	-77.563604	487.004710	1107.018213	-86.184102	519.841869	1028.469113	-89.142957	513.441195	1128.363817	-104.479707	591.161411	900.464206	-114.280890	571.050837	886.897929	-228.034892	503.223885	811.323209	-93.471759	458.686144	732.730816	-108.752231	382.325661	693.805597	-116.132023	483.526601	713.414195	-131.354509	283.990327	580.139938	-123.778857	306.799964	577.388098	-209.190577	207.356850	578.190554	-163.260364	475.847454	445.309020	-143.572390	403.845868	451.654876	-89.854766	341.268388	1101.646915	-455.604534	366.387503	1018.571434	-453.894511	399.607890	1019.995762	-439.686818	346.610245	931.938443	-461.160168	320.632554	762.023689	-450.034128	336.656412	725.689764	-340.995616	265.756768	641.670734	-474.075127	250.228037	557.246916	-457.153143	194.172798	488.399342	-458.483638	276.498488	547.503382	-429.010695	129.849363	346.351602	-455.067587	131.640439	345.477298	-367.785650	60.768861	378.209536	-411.824415	255.146538	139.438179	-402.094279	184.143768	169.564875	-466.341678	-176.175126	936.039863	-277.606699	-3.221261	86.549090	-484.467678	-14.947923	80.630171	-84.013514	
